<svg xmlns="http://www.w3.org/2000/svg" viewBox="0 0 800 450" width="800" height="450" role="img">
<defs>
<linearGradient id="g" x1="0" y1="0" x2="1" y2="1">
<stop offset="0" stop-color="#d9a446"/><stop offset="1" stop-color="#a8741c"/>
</linearGradient>
<radialGradient id="r" cx="0.22" cy="0.18" r="0.8">
<stop offset="0" stop-color="#ffffff" stop-opacity="0.34"/><stop offset="1" stop-color="#ffffff" stop-opacity="0"/>
</radialGradient>
</defs>
<rect width="800" height="450" fill="url(#g)"/>
<rect width="800" height="450" fill="url(#r)"/>
<circle cx="663" cy="96" r="132" fill="#fff" opacity="0.07"/>
<circle cx="663" cy="96" r="86" fill="#fff" opacity="0.06"/>
<path d="M0 352 C 130 368 270 336 400 352 S 670 368 800 352 L800 450 L0 450 Z" fill="#fff" opacity="0.1"/>
<path d="M0 386 C 130 330 270 442 400 386 S 670 330 800 386 L800 450 L0 450 Z" fill="#fff" opacity="0.13"/>
<path d="M0 418 C 130 416 270 420 400 418 S 670 416 800 418 L800 450 L0 450 Z" fill="#fff" opacity="0.18"/>
<g transform="translate(332.8 137.8) scale(5.6)" fill="none" stroke="#ffffff" stroke-width="1.3"
   stroke-linecap="round" stroke-linejoin="round" opacity="0.96"><rect x="4" y="10" width="16" height="11" rx="2"/><path d="M8 10V7a4 4 0 0 1 8 0v3"/></g>
</svg>