<svg xmlns="http://www.w3.org/2000/svg" viewBox="0 0 800 450" width="800" height="450" role="img">
<defs>
<linearGradient id="g" x1="0" y1="0" x2="1" y2="1">
<stop offset="0" stop-color="#7c9bcb"/><stop offset="1" stop-color="#4a6fa5"/>
</linearGradient>
<radialGradient id="r" cx="0.22" cy="0.18" r="0.8">
<stop offset="0" stop-color="#ffffff" stop-opacity="0.34"/><stop offset="1" stop-color="#ffffff" stop-opacity="0"/>
</radialGradient>
</defs>
<rect width="800" height="450" fill="url(#g)"/>
<rect width="800" height="450" fill="url(#r)"/>
<circle cx="663" cy="96" r="132" fill="#fff" opacity="0.07"/>
<circle cx="663" cy="96" r="86" fill="#fff" opacity="0.06"/>
<path d="M0 352 C 130 389 270 315 400 352 S 670 389 800 352 L800 450 L0 450 Z" fill="#fff" opacity="0.1"/>
<path d="M0 386 C 130 315 270 457 400 386 S 670 315 800 386 L800 450 L0 450 Z" fill="#fff" opacity="0.13"/>
<path d="M0 418 C 130 428 270 408 400 418 S 670 428 800 418 L800 450 L0 450 Z" fill="#fff" opacity="0.18"/>
<g transform="translate(332.8 137.8) scale(5.6)" fill="none" stroke="#ffffff" stroke-width="1.3"
   stroke-linecap="round" stroke-linejoin="round" opacity="0.96"><path d="M4 8h16v11a2 2 0 0 1-2 2H6a2 2 0 0 1-2-2Z"/><path d="M4 8 12 3l8 5"/><path d="M7 14c1.6 0 1.6 2 3.2 2s1.6-2 3.2-2 1.6 2 3.2 2"/></g>
</svg>